<svg width="0" height="0" class="hidden">
  <symbol version="1.1" id="chevron" xmlns="http://www.w3.org/2000/svg" xmlns:xlink="http://www.w3.org/1999/xlink" x="0px" y="0px" xml:space="preserve" viewBox="0 0 407.436 407.436">
    <polygon points="203.718,91.567 0,294.621 21.179,315.869 203.718,133.924 386.258,315.869 407.436,294.621 "></polygon>
    <g></g>
    <g></g>
    <g></g>
    <g></g>
    <g></g>
    <g></g>
    <g></g>
    <g></g>
    <g></g>
    <g></g>
    <g></g>
    <g></g>
    <g></g>
    <g></g>
    <g></g>
  </symbol>
  <symbol version="1.1" id="menu" xmlns="http://www.w3.org/2000/svg" xmlns:xlink="http://www.w3.org/1999/xlink" x="0px" y="0px" xml:space="preserve" viewBox="0 0 377 377">
    <g>
      <circle cx="15" cy="88.5" r="15"></circle>
      <rect x="75" y="73.5" width="302" height="30"></rect>
      <circle cx="15" cy="288.5" r="15"></circle>
      <rect x="75" y="273.5" width="302" height="30"></rect>
      <circle cx="15" cy="188.5" r="15"></circle>
      <rect x="75" y="173.5" width="302" height="30"></rect>
    </g>
    <g></g>
    <g></g>
    <g></g>
    <g></g>
    <g></g>
    <g></g>
    <g></g>
    <g></g>
    <g></g>
    <g></g>
    <g></g>
    <g></g>
    <g></g>
    <g></g>
    <g></g>
  </symbol>
  <symbol version="1.1" id="search" xmlns="http://www.w3.org/2000/svg" xmlns:xlink="http://www.w3.org/1999/xlink" x="0px" y="0px" enable-background="new 0 0 122.879 119.799" xml:space="preserve" viewBox="0 0 122.879 119.799">
    <g>
      <path d="M49.988,0h0.016v0.007C63.803,0.011,76.298,5.608,85.34,14.652c9.027,9.031,14.619,21.515,14.628,35.303h0.007v0.033v0.04 h-0.007c-0.005,5.557-0.917,10.905-2.594,15.892c-0.281,0.837-0.575,1.641-0.877,2.409v0.007c-1.446,3.66-3.315,7.12-5.547,10.307 l29.082,26.139l0.018,0.016l0.157,0.146l0.011,0.011c1.642,1.563,2.536,3.656,2.649,5.78c0.11,2.1-0.543,4.248-1.979,5.971 l-0.011,0.016l-0.175,0.203l-0.035,0.035l-0.146,0.16l-0.016,0.021c-1.565,1.642-3.654,2.534-5.78,2.646 c-2.097,0.111-4.247-0.54-5.971-1.978l-0.015-0.011l-0.204-0.175l-0.029-0.024L78.761,90.865c-0.88,0.62-1.778,1.209-2.687,1.765 c-1.233,0.755-2.51,1.466-3.813,2.115c-6.699,3.342-14.269,5.222-22.272,5.222v0.007h-0.016v-0.007 c-13.799-0.004-26.296-5.601-35.338-14.645C5.605,76.291,0.016,63.805,0.007,50.021H0v-0.033v-0.016h0.007 c0.004-13.799,5.601-26.296,14.645-35.338C23.683,5.608,36.167,0.016,49.955,0.007V0H49.988L49.988,0z M50.004,11.21v0.007h-0.016 h-0.033V11.21c-10.686,0.007-20.372,4.35-27.384,11.359C15.56,29.578,11.213,39.274,11.21,49.973h0.007v0.016v0.033H11.21 c0.007,10.686,4.347,20.367,11.359,27.381c7.009,7.012,16.705,11.359,27.403,11.361v-0.007h0.016h0.033v0.007 c10.686-0.007,20.368-4.348,27.382-11.359c7.011-7.009,11.358-16.702,11.36-27.4h-0.006v-0.016v-0.033h0.006 c-0.006-10.686-4.35-20.372-11.358-27.384C70.396,15.56,60.703,11.213,50.004,11.21L50.004,11.21z"></path>
    </g>
  </symbol>
  <symbol id="branch" xmlns="http://www.w3.org/2000/svg" viewBox="0 0 512 512">
    <path fill="#000" d="M335.594 18.53c-40.164.157-75.583 36.542-88.656 51.75-25.09-4.49-50.48-6.746-76.094-6.53-19.542.165-39.218 1.786-58.97 4.875-22.38-17.928-46.586-31.63-72.5-36.97C12.973 45.292 20.87 66.202 26.75 86.688c33.85-2.782 68.376 8.017 103.063 24.438 7.513 5.012 15.003 10.257 22.468 15.75 10.193 36.02 15.185 71.684 16.75 107.22-24.967 5.267-73.76 20.245-87.968 58.56l56.657-8.06-60.782 30.592c-1.59 28.013 4.228 50.995 12.28 71.844l38.626-40.874-29.063 63.25c12.435 27.13 25.52 52.227 25.75 82.844 15.673-15.742 30.667-28.657 44.314-40.78l-9.313-58.94 22.22 47.25c17.657-16.465 32.232-32.686 41.78-54.155l-36.28-56.063 44.594 30.47c.21-.965.4-1.953.594-2.938 11.05-55.837-31.68-107.473-44.657-121.625-1.19-29.747-4.676-59.735-11.5-90.032 39.703 32.23 78.083 71.073 113.064 115.28-8.172 28.668-12.69 52.292-14.156 71.97l31.593-28.47-30.81 61.626c3.548 23.952 13.97 39.684 29 51.562l25.342-46.156-9.062 56.813c16.678 9.177 36.777 16.253 58.406 24.78-.176-16.76.29-29.34.28-48.343l17.564 55.688c18.85 8.084 38.462 17.87 57.72 31.562 2.478-28.53 2.51-57.14-.345-84.188l-53.688-20.625 51.594 4.313c-3.97-25.8-10.814-49.764-20.967-70.313L371.5 307.344l47.094-8.53c-21.232-29.417-52.085-47.727-94.563-47.69-5.655.006-11.52.36-17.592 1.032-49.197-62.79-105.105-115.302-162.657-154.25-4.302-4.435-8.683-8.766-13.155-12.97 38.91-4.456 77.396-2.886 115.25 4.095 7.227 18.038 23.78 51.747 52.094 69.376l-6.75-53.562 29.436 63.062c2.974.69 6.026 1.226 9.188 1.53 59.64 5.77 98.592-45.932 158.937-38.686-18.445-8.86-31.076-21.388-42.717-35.063l-67.844.563 51.405-20.53c-14.13-17.083-30.05-34.107-56.094-46.75L324.876 58.5l25.875-38.22c-5.098-1.204-10.166-1.768-15.156-1.75z"></path>
  </symbol>
  <symbol xmlns="http://www.w3.org/2000/svg" shape-rendering="geometricPrecision" text-rendering="geometricPrecision" image-rendering="optimizeQuality" fill-rule="evenodd" clip-rule="evenodd" viewBox="0 0 512 269.25" id="camping">
    <path fill-rule="nonzero" d="M307.34 269.13h-.32a6.844 6.844 0 0 1-8.02-6.63c-.31-17.31-5.08-36.59-13.18-54.97-6.99-15.88-16.43-30.98-27.59-43.5-9.69 11.92-17.7 26.22-23.83 41.23-7.85 19.22-12.62 39.58-13.91 57.61a6.86 6.86 0 0 1-7.32 6.36c-.25-.02-.5-.05-.75-.1h-80.21c-3.79 0-6.86-3.07-6.86-6.86 0-3.79 3.07-6.87 6.86-6.87h9.13c11.13-40.25 26.34-82.41 46.6-122.26 13.61-26.79 29.5-52.54 47.94-75.97l-20.27-35.12 11.85-6.86 17.7 30.65c2.53-2.97 5.1-5.9 7.72-8.78V0h13.74v37.64c2.47 2.94 4.91 5.91 7.31 8.9l18.1-31.35 11.86 6.86-20.85 36.12c20.69 27.21 38.49 55.93 53.23 84.85 19.38 38.01 33.52 76.47 42.09 112.38h5.05c3.79 0 6.87 3.08 6.87 6.87s-3.08 6.86-6.87 6.86h-76.07zM385.6 70.69c6.91-4.7 12.48-11.34 14.5-18.54a30.527 30.527 0 0 1-18.83 6.46c-16.92 0-30.65-13.72-30.65-30.65 0-7.37 2.6-14.13 6.94-19.42-9.09 2.3-16.11 7.91-20.65 15-20.56 32.06 16.6 69 48.69 47.15zM18.2 269.13a6.86 6.86 0 0 1-6.87-6.86c0-3.79 3.07-6.87 6.87-6.87h31.53v-52.88H7.05c-7.15.65-8.59-4.99-5.54-9.68l27.27-35.52-.79-.79H13.4c-5.28.79-7.24-4.95-4.04-8.97l29.37-38.05h-8.57c-5.37.14-6.7-4.8-3.25-9.46l26.75-35.32c1.82-2.17 3.78-5.36 6.96-5.28 2.74.06 4.38 2.65 6.01 4.55l28.45 36.73c3.09 4.43.46 9.09-4.93 9.09h-7.68l29.16 37.73c3.5 3.46 1.71 9.01-2.3 9.77H92.37l25.43 33.38 2.78 3.27c2.13 2.43 1.07 8-3.52 8.55H71.24v52.88h32.2c3.79 0 6.87 3.08 6.87 6.87s-3.08 6.86-6.87 6.86H18.2zm391.81 0c-3.79 0-6.86-3.07-6.86-6.86 0-3.79 3.07-6.87 6.86-6.87h30.09v-51.26h-42.68c-7.15.66-8.6-4.99-5.55-9.68l27.27-35.51-.78-.79h-14.59c-5.29.78-7.25-4.96-4.04-8.97l29.37-38.06h-8.58c-5.37.15-6.7-4.8-3.25-9.46l26.75-35.32c1.83-2.17 3.79-5.35 6.96-5.28 2.74.06 4.39 2.65 6.01 4.55l28.46 36.73c3.08 4.43.45 9.09-4.93 9.09h-7.69L502 149.18c3.49 3.45 1.71 9-2.31 9.76h-16.96l25.43 33.38 2.79 3.27c2.12 2.43 1.06 8-3.53 8.55H461.6v51.26h30.75c3.79 0 6.87 3.08 6.87 6.87s-3.08 6.86-6.87 6.86h-82.34zM155.58 255.4h51.83c1.96-17.63 6.84-36.94 14.34-55.29 7.72-18.91 18.23-36.84 31.21-50.94l.22-.22a6.85 6.85 0 0 1 9.68.03c14.61 14.69 26.85 33.35 35.51 53.02 7.75 17.59 12.69 36.1 13.99 53.4h51.91c-8.38-33.91-21.89-70.18-40.23-106.16-17.34-34.02-38.99-67.73-64.67-98.88-23.38 26.53-42.95 56.96-59.2 88.95-19.19 37.75-33.77 77.72-44.59 116.09z"></path>
  </symbol>
</svg>